HIERARCHY
ROOT Root
{
  OFFSET -8.33935 11.8871 1.11795
  CHANNELS 6 Xposition Yposition Zposition Zrotation Xrotation Yrotation
  JOINT Spine
  {
    OFFSET 5.3114 0 0
    CHANNELS 3 Zrotation Xrotation Yrotation
    JOINT Spine1
    {
      OFFSET 2.79004 0 0
      CHANNELS 3 Zrotation Xrotation Yrotation
      JOINT Neck
      {
        OFFSET 1.43377 0 0
        CHANNELS 3 Zrotation Xrotation Yrotation
        JOINT Head
        {
          OFFSET 1.86043 0 0
          CHANNELS 3 Zrotation Xrotation Yrotation
          End Site
          {
            OFFSET 0 0 0
          }
        }
      }
      JOINT LeftArm
      {
        OFFSET 0.0387506 0 2.55754
        CHANNELS 3 Zrotation Xrotation Yrotation
        JOINT LeftForeArm
        {
          OFFSET 4.24845 0 0
          CHANNELS 3 Zrotation Xrotation Yrotation
          JOINT LeftHand
          {
            OFFSET 4.01008 0 0
            CHANNELS 3 Zrotation Xrotation Yrotation
            End Site
            {
              OFFSET 0 0 0
            }
          }
        }
      }
      JOINT RightArm
      {
        OFFSET 0.0387506 0 -2.55754
        CHANNELS 3 Zrotation Xrotation Yrotation
        JOINT RightForeArm
        {
          OFFSET -4.24845 0 0
          CHANNELS 3 Zrotation Xrotation Yrotation
          JOINT RightHand
          {
            OFFSET -4.01009 0 0
            CHANNELS 3 Zrotation Xrotation Yrotation
            End Site
            {
              OFFSET 0 0 0
            }
          }
        }
      }
    }
  }
  JOINT LeftUpLeg
  {
    OFFSET -1.23318 0 2.05692
    CHANNELS 3 Zrotation Xrotation Yrotation
    JOINT LeftLeg
    {
      OFFSET 5.46397 0 0
      CHANNELS 3 Zrotation Xrotation Yrotation
      JOINT LeftFoot
      {
        OFFSET 4.68898 0 0
        CHANNELS 3 Zrotation Xrotation Yrotation
        End Site
        {
          OFFSET 0 0 0
        }
      }
    }
  }
  JOINT RightUpLeg
  {
    OFFSET -1.24454 0 -2.05007
    CHANNELS 3 Zrotation Xrotation Yrotation
    JOINT RightLeg
    {
      OFFSET -5.46397 0 0
      CHANNELS 3 Zrotation Xrotation Yrotation
      JOINT RightFoot
      {
        OFFSET -4.68901 0 0
        CHANNELS 3 Zrotation Xrotation Yrotation
        End Site
        {
          OFFSET 0 0 0
        }
      }
    }
  }
}
MOTION
Frames:	24
Frame Time:	0.00833333
14.3053 10.2089 -0.39578 80.6153 1.62414 0.51405 23.3563 2.31845 0.523445 3.97819 0.288411 1.96666 -14.4981 -3.12681 -5.13241 9.77579 -6.44681 10.0602 -42.4967 -63.1127 -166.601 80.9181 24.7062 38.8022 -0.639396 -7.20614 174.371 137.853 -55.012 179.592 82.3117 25.5554 39.0897 -5.34359 -46.7809 172.142 -40.9887 5.23734 -171.395 -71.5256 -0.804692 -2.25593 22.8242 -3.6614 177.624 137.314 2.12973 -171.551 -65.9002 -0.863987 -2.32165 5.52308 3.97533 176.382 
14.3058 10.2087 -0.395628 80.5788 1.65344 0.510178 23.3758 2.42869 0.511412 4.02771 0.312967 1.77446 -14.4925 -3.17613 -4.98458 9.67721 -6.52185 10.0655 -42.3682 -62.7646 -166.389 81.3945 24.9962 38.9014 -0.67278 -7.57721 174.366 138.364 -54.1961 -179.974 82.0762 25.4118 39.0428 -5.38256 -46.977 172.114 -40.9562 5.22018 -171.405 -71.534 -0.804716 -2.25581 22.8242 -3.67337 177.628 137.359 2.13637 -171.547 -65.8983 -0.864878 -2.32163 5.56153 4.0079 176.377 
14.3064 10.2086 -0.395468 80.5357 1.67977 0.506456 23.4053 2.54185 0.502473 4.07672 0.3372 1.56216 -14.4992 -3.22979 -4.82197 9.60515 -6.60095 10.0549 -42.2501 -62.4056 -166.174 81.8623 25.2814 38.9983 -0.709273 -7.982 174.36 138.767 -53.3208 -179.631 81.8139 25.2518 38.9903 -5.42383 -47.1841 172.084 -40.914 5.20569 -171.411 -71.5382 -0.804756 -2.25576 22.8222 -3.68338 177.631 137.414 2.1387 -171.549 -65.8918 -0.865785 -2.32167 5.60172 4.04199 176.372 
14.3072 10.2085 -0.395279 80.4996 1.71042 0.494415 23.4288 2.62738 0.506092 4.11284 0.354792 1.39944 -14.5097 -3.27096 -4.69396 9.57233 -6.65969 10.023 -42.2295 -61.9793 -166.076 82.274 25.5326 39.083 -0.739937 -8.32135 174.355 139.106 -52.5213 -179.339 81.5595 25.0968 38.9386 -5.45308 -47.3313 172.063 -40.8857 5.18406 -171.411 -71.5436 -0.804783 -2.25568 22.8114 -3.68495 177.631 137.463 2.14653 -171.557 -65.8797 -0.866679 -2.32177 5.63911 4.06798 176.368 
14.3081 10.2084 -0.395009 80.4754 1.7515 0.465476 23.4411 2.6798 0.532426 4.1339 0.36421 1.3012 -14.5311 -3.29755 -4.60605 9.59861 -6.6937 9.95733 -42.339 -61.4393 -166.123 82.6249 25.7469 39.1528 -0.763868 -8.58517 174.351 139.409 -51.8113 -179.068 81.3041 24.9411 38.8851 -5.46083 -47.3736 172.058 -40.8822 5.14609 -171.4 -71.5542 -0.804779 -2.25553 22.7857 -3.67401 177.627 137.506 2.17013 -171.577 -65.8583 -0.867562 -2.32197 5.67304 4.08139 176.364 
14.3091 10.2083 -0.394685 80.4555 1.79777 0.426262 23.4509 2.71451 0.573887 4.14605 0.368774 1.23152 -14.5649 -3.31775 -4.53447 9.6717 -6.71529 9.86429 -42.5215 -60.826 -166.245 82.9383 25.9384 39.2124 -0.785321 -8.82088 174.347 139.655 -51.1267 -178.839 81.035 24.7772 38.828 -5.45649 -47.3578 172.061 -40.8893 5.09921 -171.379 -71.5662 -0.804762 -2.25536 22.7503 -3.6548 177.621 137.548 2.20171 -171.606 -65.8293 -0.868447 -2.32227 5.70574 4.08797 176.36 
14.3103 10.2083 -0.394404 80.4347 1.83937 0.391103 23.4635 2.73231 0.613309 4.14924 0.369438 1.18378 -14.5945 -3.3301 -4.4847 9.75605 -6.72504 9.76749 -42.7273 -60.2136 -166.41 83.208 26.1034 39.2626 -0.803035 -9.01565 174.344 139.814 -50.4862 -178.69 80.7822 24.6233 38.7742 -5.4537 -47.3494 172.064 -40.8932 5.05852 -171.361 -71.5737 -0.80476 -2.25526 22.7148 -3.63329 177.614 137.59 2.22404 -171.636 -65.7995 -0.869318 -2.32257 5.73701 4.09353 176.357 
14.3117 10.2083 -0.394265 80.4079 1.86654 0.37433 23.4844 2.73402 0.63353 4.14341 0.367158 1.15138 -14.6034 -3.33317 -4.4622 9.81616 -6.72359 9.69049 -42.9105 -59.6766 -166.588 83.4282 26.2381 39.3039 -0.815747 -9.15665 174.342 139.858 -49.9083 -178.655 80.5756 24.4976 38.7303 -5.46616 -47.4141 172.055 -40.8802 5.0391 -171.354 -71.571 -0.804801 -2.2553 22.6889 -3.61543 177.609 137.632 2.21982 -171.659 -65.7756 -0.870157 -2.32276 5.76668 4.10387 176.353 
14.3132 10.2083 -0.394333 80.3726 1.8709 0.384463 23.5152 2.7142 0.622633 4.12637 0.361361 1.14204 -14.5773 -3.32315 -4.48329 9.83289 -6.70773 9.64888 -43.0758 -59.1886 -166.796 83.608 26.3482 39.3379 -0.822372 -9.2322 174.34 139.777 -49.3684 -178.755 80.4117 24.3981 38.6952 -5.50511 -47.605 172.026 -40.8418 5.05293 -171.361 -71.5527 -0.804911 -2.25558 22.6768 -3.59861 177.603 137.673 2.1751 -171.675 -65.7604 -0.870961 -2.3228 5.79323 4.12247 176.35 
14.3149 10.2082 -0.394541 80.3318 1.85957 0.412293 23.553 2.6743 0.59222 4.09887 0.351812 1.15613 -14.5283 -3.30196 -4.5401 9.82846 -6.67825 9.62699 -43.2398 -58.7252 -167.04 83.7473 26.4335 39.3633 -0.823811 -9.2519 174.34 139.595 -48.8661 -178.96 80.2785 24.3172 38.6659 -5.56115 -47.8752 171.984 -40.7869 5.08931 -171.379 -71.5233 -0.805069 -2.25601 22.6727 -3.58104 177.598 137.714 2.10224 -171.686 -65.75 -0.871737 -2.32276 5.81726 4.1456 176.347 
14.3167 10.2082 -0.394794 80.289 1.84601 0.44556 23.596 2.62549 0.560399 4.0653 0.339981 1.17601 -14.4794 -3.27672 -4.60183 9.82938 -6.64177 9.60154 -43.382 -58.3629 -167.282 83.8259 26.4815 39.3771 -0.821799 -9.2348 174.34 139.335 -48.4571 -179.233 80.1936 24.2657 38.6469 -5.61675 -48.1402 171.943 -40.7278 5.1293 -171.402 -71.4912 -0.805232 -2.25648 22.6717 -3.56997 177.595 137.755 2.02332 -171.693 -65.7409 -0.872492 -2.32267 5.84171 4.16822 176.344 
14.3186 10.2083 -0.394996 80.2474 1.84357 0.472002 23.6427 2.57893 0.545275 4.03005 0.327336 1.18403 -14.4536 -3.25455 -4.63773 9.8622 -6.60486 9.54928 -43.4865 -58.1789 -167.489 83.8234 26.4799 39.376 -0.818072 -9.19995 174.341 139.013 -48.1968 -179.543 80.1744 24.2542 38.6423 -5.65372 -48.3151 171.915 -40.6765 5.15394 -171.429 -71.465 -0.80536 -2.25687 22.669 -3.57264 177.596 137.795 1.96057 -171.696 -65.73 -0.873229 -2.32261 5.86955 4.18528 176.341 
14.3207 10.2084 -0.395109 80.2065 1.8619 0.490767 23.6987 2.53152 0.555973 3.99256 0.312119 1.16764 -14.4646 -3.23905 -4.63149 9.94181 -6.57108 9.45366 -43.5696 -58.188 -167.68 83.7404 26.4291 39.3618 -0.813079 -9.15199 174.341 138.603 -48.0774 -179.913 80.2274 24.2864 38.6544 -5.66707 -48.3788 171.904 -40.6353 5.15456 -171.466 -71.4453 -0.805448 -2.25716 22.6636 -3.59759 177.603 137.835 1.9207 -171.688 -65.7178 -0.873956 -2.32255 5.90449 4.19308 176.337 
14.3229 10.2085 -0.395189 80.1651 1.89183 0.507589 23.763 2.47932 0.581403 3.95105 0.294263 1.13886 -14.4978 -3.22585 -4.60224 10.0515 -6.53626 9.33054 -43.6389 -58.351 -167.869 83.5856 26.3344 39.3353 -0.805899 -9.08093 174.342 138.102 -48.0757 179.648 80.3428 24.3566 38.6805 -5.66626 -48.376 171.904 -40.5981 5.14245 -171.513 -71.4282 -0.805517 -2.25741 22.658 -3.63877 177.614 137.874 1.89163 -171.671 -65.7056 -0.874669 -2.32248 5.94398 4.19509 176.333 
14.3252 10.2086 -0.395276 80.1252 1.9185 0.520089 23.8236 2.43229 0.609344 3.90809 0.277774 1.11694 -14.5333 -3.21015 -4.57227 10.1706 -6.49548 9.20527 -43.666 -58.6653 -168.016 83.3512 26.1909 39.2925 -0.796214 -8.98378 174.344 137.559 -48.2255 179.189 80.5131 24.4601 38.7179 -5.65428 -48.3211 171.913 -40.5646 5.12868 -171.554 -71.4151 -0.80556 -2.25761 22.6524 -3.68146 177.627 137.912 1.86729 -171.659 -65.6912 -0.875354 -2.32244 5.98156 4.19705 176.33 
14.3274 10.2087 -0.395411 80.0892 1.92683 0.525888 23.8687 2.40038 0.627578 3.86624 0.266658 1.12111 -14.5514 -3.18715 -4.56391 10.2783 -6.44382 9.10317 -43.6201 -59.1281 -168.076 83.0289 25.9938 39.2291 -0.783708 -8.85756 174.345 137.021 -48.561 178.76 80.7313 24.5928 38.7641 -5.63413 -48.2286 171.928 -40.5347 5.12428 -171.572 -71.4074 -0.805568 -2.25773 22.6473 -3.71096 177.635 137.946 1.84157 -171.664 -65.6723 -0.875998 -2.32246 6.01077 4.20472 176.327 
14.3294 10.2088 -0.395641 80.0563 1.90724 0.521006 23.8965 2.3897 0.633611 3.81833 0.262858 1.16451 -14.5406 -3.15296 -4.58907 10.374 -6.37515 9.03057 -43.4756 -59.7616 -168.038 82.5998 25.7314 39.1444 -0.766203 -8.68043 174.348 136.504 -49.1377 178.371 81.0182 24.7673 38.8238 -5.5963 -48.0528 171.955 -40.5065 5.13372 -171.556 -71.4061 -0.805536 -2.25775 22.6426 -3.72315 177.638 137.979 1.81268 -171.697 -65.643 -0.876612 -2.32262 6.02988 4.22007 176.324 
14.3315 10.209 -0.395932 80.0257 1.86956 0.507828 23.9129 2.39381 0.633705 3.76559 0.263946 1.23422 -14.5135 -3.11099 -4.63385 10.4673 -6.29371 8.97411 -43.248 -60.5594 -167.916 82.073 25.4095 39.0416 -0.744582 -8.46099 174.351 135.971 -49.9221 177.989 81.3696 24.9812 38.8973 -5.54302 -47.8025 171.994 -40.4808 5.1506 -171.518 -71.4102 -0.80547 -2.25769 22.6384 -3.72595 177.638 138.011 1.78389 -171.749 -65.6063 -0.877198 -2.32288 6.04234 4.23989 176.322 
14.3333 10.209 -0.396203 79.9997 1.82818 0.493521 23.9174 2.40375 0.628778 3.72331 0.26737 1.31036 -14.4865 -3.06749 -4.68187 10.552 -6.21017 8.92957 -42.9621 -61.4767 -167.707 81.4822 25.0492 38.9235 -0.723101 -8.24195 174.354 135.391 -50.8151 177.596 81.7409 25.2074 38.9747 -5.49452 -47.5739 172.03 -40.4612 5.16968 -171.473 -71.4183 -0.805377 -2.25758 22.6342 -3.72265 177.636 138.036 1.75689 -171.803 -65.5734 -0.877731 -2.32309 6.04946 4.26213 176.32 
14.3347 10.2085 -0.396374 79.9804 1.79757 0.485254 23.9096 2.41055 0.619746 3.70678 0.27058 1.37304 -14.4761 -3.02869 -4.71673 10.6222 -6.1352 8.8927 -42.6415 -62.4681 -167.405 80.8614 24.6716 38.792 -0.706002 -8.066 174.357 134.738 -51.7179 177.177 82.0875 25.4188 39.0458 -5.47042 -47.4629 172.048 -40.4511 5.18573 -171.438 -71.4286 -0.805265 -2.25744 22.6298 -3.71653 177.634 138.048 1.73331 -171.844 -65.5552 -0.878186 -2.32311 6.05252 4.28475 176.319 
14.3354 10.2075 -0.396401 79.9699 1.7792 0.485418 23.8852 2.41397 0.604238 3.72695 0.273711 1.4213 -14.4864 -2.99402 -4.73987 10.6734 -6.06824 8.87128 -42.2267 -63.6561 -166.915 80.1471 24.2384 38.6295 -0.69091 -7.9094 174.359 133.92 -52.7163 176.694 82.4195 25.6214 39.1113 -5.48002 -47.5167 172.041 -40.454 5.19907 -171.416 -71.4425 -0.805129 -2.25724 22.6246 -3.70585 177.63 138.043 1.71167 -171.87 -65.5564 -0.878543 -2.32286 6.04915 4.30986 176.318 
14.3356 10.206 -0.396334 79.9666 1.76611 0.490031 23.8456 2.41807 0.582638 3.77338 0.277851 1.46428 -14.5087 -2.96089 -4.75808 10.7098 -6.00474 8.86459 -41.6795 -65.0173 -166.225 79.3437 23.7521 38.4429 -0.676721 -7.76109 174.361 132.967 -53.8249 176.156 82.7533 25.8253 39.1755 -5.51143 -47.6767 172.018 -40.4671 5.21191 -171.397 -71.4602 -0.804966 -2.25698 22.6188 -3.68973 177.625 138.025 1.69168 -171.887 -65.5705 -0.87882 -2.32244 6.03957 4.33766 176.317 
14.3356 10.2044 -0.396235 79.9669 1.76025 0.496694 23.7999 2.42037 0.559991 3.82924 0.281881 1.49732 -14.5407 -2.93252 -4.76306 10.7378 -5.94942 8.85564 -41.0909 -66.2893 -165.487 78.5889 23.2961 38.2688 -0.669565 -7.68278 174.361 132.049 -54.8382 175.63 83.0545 26.0094 39.2329 -5.55216 -47.8813 171.988 -40.4849 5.2219 -171.384 -71.4786 -0.80479 -2.25672 22.6138 -3.67277 177.621 138.002 1.677 -171.896 -65.5923 -0.879048 -2.32193 6.02896 4.36326 176.317 
14.3356 10.2031 -0.396167 79.9672 1.76339 0.503012 23.757 2.41837 0.541346 3.87772 0.284682 1.51575 -14.5799 -2.91211 -4.74651 10.7643 -5.90696 8.82748 -40.6197 -67.2138 -164.923 78.023 22.9547 38.1406 -0.675562 -7.7362 174.361 131.361 -55.5525 175.201 83.2887 26.1527 39.278 -5.58948 -48.0686 171.96 -40.5019 5.22666 -171.378 -71.4943 -0.804613 -2.2565 22.611 -3.65959 177.617 137.981 1.67119 -171.898 -65.6165 -0.879261 -2.3214 6.02249 4.38174 176.317 
